<svg width="137" height="40" viewBox="0 0 137 40" fill="none" xmlns="http://www.w3.org/2000/svg">
<path fill-rule="evenodd" clip-rule="evenodd" d="M19.9167 21.282C18.619 20.3872 17.0779 19.1684 17.0779 19.1684V14.54L24.0005 20.175C23.6801 21.8413 21.6565 22.4815 19.9167 21.282ZM8.51703 3.61696C7.95334 -0.702877 15.3301 -1.56684 15.3301 3.30454C15.3301 8.24535 9.06451 7.8018 8.51703 3.61696ZM15.0056 9.93857L15.2774 23.5962L22.6784 39.0242C21.7903 40.0039 19.4666 40.4937 18.327 38.5536C15.6626 34.0217 7.96144 20.7922 7.96144 20.7922L7.0206 14.4783L4.38865 15.3037L3.08688 22.173C3.08688 22.173 -0.185818 22.5587 0.00883995 20.0362C0.215664 17.4366 0.552261 12.488 0.552261 12.488L7.67351 8.42663C12.5481 8.06793 15.0259 9.954 15.0259 9.954L15.0056 9.93857ZM6.89488 23.3571L9.92831 28.5139L3.93851 40C2.46235 40 0.406267 38.6655 1.38361 36.4246C2.32041 34.2878 6.91921 23.3725 6.91921 23.3725L6.89488 23.3571Z" fill="#3F4C1C"/>
<path fill-rule="evenodd" clip-rule="evenodd" d="M131.958 29.5042L131.432 31.3837L111.194 19.1015L111.024 13.6874C111.024 13.6874 115.301 16.7193 117.034 18.096C117.451 18.3861 117.763 18.8041 117.922 19.2868C118.081 19.7695 118.079 20.2908 117.916 20.7721L127.05 26.4878L128.539 20.3931L130.554 22.8991L133.427 22.9919L134.158 24.4111H137C137 28.0811 135.693 29.5739 131.958 29.5042ZM108.603 19.3451L113.921 39.5822C113.921 39.5822 110.978 40.897 110.104 38.422C109.296 36.1365 105.278 25.6603 105.278 25.6603L103.669 26.3873C103.669 26.3873 100.273 35.7923 99.1944 38.4491C98.0845 41.1793 95.2846 39.4739 95.2846 39.4739L100.451 20.0219L100.227 14.8205L98.1773 15.3387L96.9437 22.2262C96.9437 22.2262 93.8228 22.6322 94.0085 20.0876C94.1979 17.4811 94.5189 12.5118 94.5189 12.5118L101.31 8.44734C106.109 8.19211 109.319 9.6075 108.948 14.8398C108.839 16.3519 108.603 19.3451 108.603 19.3451ZM100.993 3.64041C100.447 -0.706324 107.49 -1.57258 107.49 3.3117C107.49 8.25785 101.519 7.82472 100.993 3.64041ZM119.845 27.8491L120.696 29.9567L124.459 29.0789L130.929 33.1704L129.541 38.1358C129.978 38.1358 130.457 38.8319 130.457 39.7214H126.381L126.219 35.4211L121.752 35.22L119.737 38.1436C120.1 38.2028 120.427 38.4 120.648 38.694C120.869 38.988 120.968 39.3561 120.924 39.7214H115.657L118.65 27.8723L119.845 27.8491Z" fill="#3F4C1C"/>
<path fill-rule="evenodd" clip-rule="evenodd" d="M63.3911 35.5612L63.9839 33.3573L82.0005 32.9699L81.3152 35.4953L63.3911 35.5612ZM72.0644 20.4553L63.7606 23.3254L61.0658 20.4049L36.0005 20.2965L36.7165 18.3327H49.459C49.6478 18.0622 49.8748 17.8208 50.1327 17.6161C52.404 15.8422 54.429 14.4439 56.0997 13.3555C58.6829 11.6629 59.7223 11.5893 62.598 13.0263L65.1273 18.3017H72.5803L72.076 20.4669L72.0644 20.4553ZM63.9185 9.99734C64.2072 5.62825 71.2329 6.12403 70.3205 10.9076C69.3889 15.757 63.6413 14.196 63.9185 9.98959V9.99734ZM40.6548 37.7341L55.9265 37.5869L56.0227 35.596L41.3939 35.6619L42.0407 33.8414L56.119 33.5277L56.35 28.5389C56.35 28.5389 52.3732 26.2149 50.0942 24.9948C49.2242 24.5223 48.7083 23.4455 48.5543 22.206L58.1208 22.4965L62.0745 26.7029L59.8224 37.5482L80.7994 37.339L80.0756 40L39.9811 39.6359L40.6548 37.7341Z" fill="#3F4C1C"/>
</svg>
